<svg width="177" height="176" viewBox="0 0 177 176" fill="none" xmlns="http://www.w3.org/2000/svg">
<g filter="url(#filter0_d_33_459)">
<path d="M64.5 88C64.5 74.7452 75.2452 64 88.5 64V64C101.755 64 112.5 74.7452 112.5 88V88C112.5 101.255 101.755 112 88.5 112V112C75.2452 112 64.5 101.255 64.5 88V88Z" fill="url(#paint0_linear_33_459)" fill-opacity="0.16"/>
<g filter="url(#filter1_dd_33_459)">
<path d="M89.334 83.834L82.4198 90.7482C82.0447 91.1233 81.834 91.632 81.834 92.1624V92.6673C81.834 93.7719 82.7294 94.6673 83.834 94.6673H84.3389C84.8693 94.6673 85.378 94.4566 85.7531 94.0815L92.6673 87.1673M89.334 83.834L90.4198 82.7482C91.2008 81.9672 92.4671 81.9671 93.2482 82.7482L93.7531 83.2531C94.5342 84.0342 94.5342 85.3005 93.7531 86.0815L92.6673 87.1673M89.334 83.834L92.6673 87.1673" stroke="#BD9AF8" stroke-width="1.5" stroke-linecap="round" stroke-linejoin="round"/>
</g>
</g>
<defs>
<filter id="filter0_d_33_459" x="0.5" y="0" width="176" height="176" filterUnits="userSpaceOnUse" color-interpolation-filters="sRGB">
<feFlood flood-opacity="0" result="BackgroundImageFix"/>
<feColorMatrix in="SourceAlpha" type="matrix" values="0 0 0 0 0 0 0 0 0 0 0 0 0 0 0 0 0 0 127 0" result="hardAlpha"/>
<feOffset/>
<feGaussianBlur stdDeviation="32"/>
<feColorMatrix type="matrix" values="0 0 0 0 0.741176 0 0 0 0 0.603922 0 0 0 0 0.972549 0 0 0 0.16 0"/>
<feBlend mode="normal" in2="BackgroundImageFix" result="effect1_dropShadow_33_459"/>
<feBlend mode="normal" in="SourceGraphic" in2="effect1_dropShadow_33_459" result="shape"/>
</filter>
<filter id="filter1_dd_33_459" x="66.5" y="76" width="44" height="44" filterUnits="userSpaceOnUse" color-interpolation-filters="sRGB">
<feFlood flood-opacity="0" result="BackgroundImageFix"/>
<feColorMatrix in="SourceAlpha" type="matrix" values="0 0 0 0 0 0 0 0 0 0 0 0 0 0 0 0 0 0 127 0" result="hardAlpha"/>
<feMorphology radius="4" operator="erode" in="SourceAlpha" result="effect1_dropShadow_33_459"/>
<feOffset dy="4"/>
<feGaussianBlur stdDeviation="3"/>
<feColorMatrix type="matrix" values="0 0 0 0 0.741176 0 0 0 0 0.603922 0 0 0 0 0.972549 0 0 0 0.16 0"/>
<feBlend mode="normal" in2="BackgroundImageFix" result="effect1_dropShadow_33_459"/>
<feColorMatrix in="SourceAlpha" type="matrix" values="0 0 0 0 0 0 0 0 0 0 0 0 0 0 0 0 0 0 127 0" result="hardAlpha"/>
<feMorphology radius="3" operator="erode" in="SourceAlpha" result="effect2_dropShadow_33_459"/>
<feOffset dy="10"/>
<feGaussianBlur stdDeviation="7.5"/>
<feColorMatrix type="matrix" values="0 0 0 0 0.741176 0 0 0 0 0.603922 0 0 0 0 0.972549 0 0 0 0.16 0"/>
<feBlend mode="normal" in2="effect1_dropShadow_33_459" result="effect2_dropShadow_33_459"/>
<feBlend mode="normal" in="SourceGraphic" in2="effect2_dropShadow_33_459" result="shape"/>
</filter>
<linearGradient id="paint0_linear_33_459" x1="50.8636" y1="23.2453" x2="135.711" y2="67.563" gradientUnits="userSpaceOnUse">
<stop stop-color="#D7EDED"/>
<stop offset="1" stop-color="#CCEBEB" stop-opacity="0"/>
</linearGradient>
</defs>
</svg>
