<svg width="20" height="20" viewBox="0 0 20 20" fill="none" xmlns="http://www.w3.org/2000/svg">
<path d="M12.0233 13.7136C11.7973 14.0894 11.6673 14.5295 11.6673 15C11.6673 16.3807 12.7866 17.5 14.1673 17.5C15.548 17.5 16.6673 16.3807 16.6673 15C16.6673 13.6193 15.548 12.5 14.1673 12.5C13.2571 12.5 12.4605 12.9865 12.0233 13.7136ZM12.0233 13.7136L7.97804 11.2864M7.97804 11.2864C8.20402 10.9106 8.33398 10.4705 8.33398 10C8.33398 9.52952 8.20402 9.0894 7.97804 8.71357M7.97804 11.2864C7.54083 12.0135 6.74422 12.5 5.83398 12.5C4.45327 12.5 3.33398 11.3807 3.33398 10C3.33398 8.61929 4.45327 7.5 5.83398 7.5C6.74422 7.5 7.54083 7.98645 7.97804 8.71357M7.97804 8.71357L12.0233 6.28643M12.0233 6.28643C12.4605 7.01355 13.2571 7.5 14.1673 7.5C15.548 7.5 16.6673 6.38071 16.6673 5C16.6673 3.61929 15.548 2.5 14.1673 2.5C12.7866 2.5 11.6673 3.61929 11.6673 5C11.6673 5.47048 11.7973 5.9106 12.0233 6.28643Z" stroke="#686B6E" stroke-width="1.5" stroke-linecap="round" stroke-linejoin="round"/>
</svg>
